# Blender 4.5.3 LTS
# www.blender.org
mtllib avion.mtl
o Cube
v 0.307373 0.041790 -0.753066
v 0.451377 -0.066484 -0.753066
v 0.451377 0.002226 2.277047
v 0.451377 -0.558157 0.753066
v -0.456007 0.002226 -0.753066
v -0.456007 -0.558157 -0.753066
v -0.456007 0.002226 2.277047
v -0.456007 -0.558157 0.753066
v 0.001044 0.002226 1.812373
v 0.001044 -0.558157 1.812373
v 0.443970 0.485161 -4.273602
v -0.456007 -0.558157 -2.115202
v 0.190955 0.472651 -4.273602
v -0.456007 0.002226 -2.115202
v -0.002315 0.014737 -0.753066
v -0.002315 0.002226 2.277047
v -0.002315 -0.558157 0.753066
v 0.118983 0.002226 -0.753066
v -0.460219 -0.284715 -4.273602
v -0.184498 0.472651 -4.273602
v 1.848188 -0.180551 -0.887829
v 1.992191 -0.186869 -0.887829
v 1.992191 -0.140987 2.142284
v 1.992191 -0.268090 0.618303
v 2.901569 0.343764 -0.945180
v 3.045572 0.337445 -0.945180
v 3.045572 0.383328 2.084933
v 3.045572 0.256225 0.560952
v 0.451377 -0.331832 3.164376
v 0.451377 -0.892215 1.640395
v -0.002315 -0.892215 1.640395
v -0.002315 -0.331832 3.164376
v 0.451377 -0.376956 3.046154
v 0.451377 -0.937339 1.522173
v -0.002315 -0.937339 1.522173
v -0.002315 -0.376956 3.046154
v -0.490761 0.910879 -5.445854
v -0.237746 0.350497 -5.445854
v -0.866215 0.910879 -5.445854
v -1.141935 1.120373 -5.445854
v 0.451377 0.281389 4.353771
v -0.002315 0.281389 4.353771
v 0.451377 -0.052670 3.855645
v -0.002315 -0.052670 3.855645
v -0.312004 0.041790 -0.753066
v -0.456007 -0.066484 -0.753066
v -0.456007 0.002226 2.277047
v -0.456007 -0.558157 0.753066
v 0.451377 0.002226 -0.753066
v 0.451377 -0.558157 -0.753066
v 0.451377 0.002226 2.277047
v 0.451377 -0.558157 0.753066
v -0.005675 0.002226 1.812373
v -0.005675 -0.558157 1.812373
v -0.448601 0.485161 -4.273602
v 0.451377 -0.558157 -2.115202
v -0.195586 0.472651 -4.273602
v 0.451377 0.002226 -2.115202
v -0.123613 0.002226 -0.753066
v 0.455588 -0.284715 -4.273602
v 0.179868 0.472651 -4.273602
v -1.852818 -0.180551 -0.887829
v -1.996822 -0.186869 -0.887829
v -1.996822 -0.140987 2.142284
v -1.996822 -0.268090 0.618303
v -2.906199 0.343764 -0.945180
v -3.050203 0.337445 -0.945180
v -3.050203 0.383328 2.084933
v -3.050203 0.256225 0.560952
v -0.456007 -0.331832 3.164376
v -0.456007 -0.892215 1.640395
v -0.456007 -0.376956 3.046154
v -0.456007 -0.937339 1.522173
v 0.486130 0.910879 -5.445854
v 0.233116 0.350497 -5.445854
v 0.861584 0.910879 -5.445854
v 1.137304 1.120373 -5.445854
v -0.456007 0.281389 4.353771
v -0.456007 -0.052670 3.855645
vn -0.0000 1.0000 -0.0000
vn -0.0000 -0.9386 0.3451
vn -1.0000 -0.0000 -0.0000
vn -0.0841 -0.9395 -0.3320
vn 0.1173 0.9931 -0.0056
vn 0.3643 -0.7503 0.5517
vn -0.5065 0.5098 0.6954
vn 0.8315 -0.5538 -0.0440
vn -0.0694 0.9890 0.1307
vn 0.2325 0.9638 0.1304
vn -0.2570 0.9603 0.1085
vn 0.4514 -0.8902 -0.0617
vn -0.9785 0.2047 -0.0253
vn 0.5271 -0.8348 -0.1588
vn 1.0000 -0.0000 -0.0000
vn -0.0615 0.9981 0.0067
vn -0.4452 0.8954 0.0095
vn 0.0656 -0.9734 0.2196
vn -0.1153 -0.2899 -0.9501
vn 0.0377 -0.9817 -0.1867
vn 0.6082 0.7937 -0.0120
vn -0.0044 -0.1000 -0.9950
vn 0.4430 -0.8952 -0.0483
vn 0.4476 -0.8911 0.0743
vn -0.0000 -0.9343 0.3566
vn -0.0000 0.9911 -0.1332
vn -0.0000 -0.9359 -0.3523
vn -0.0000 0.9343 -0.3566
vn -0.0000 -0.0000 -1.0000
vn -0.0000 0.9367 0.3502
vn 0.6956 0.6425 -0.3214
vn -0.0000 -0.8792 -0.4764
vn -0.0000 -0.8305 0.5570
vn -0.0000 -0.9272 0.3745
vn 0.0841 -0.9395 -0.3320
vn -0.1173 0.9931 -0.0056
vn -0.3643 -0.7503 0.5517
vn 0.5065 0.5098 0.6954
vn -0.8315 -0.5538 -0.0440
vn 0.0694 0.9890 0.1307
vn -0.2325 0.9638 0.1304
vn 0.2570 0.9603 0.1085
vn -0.4514 -0.8902 -0.0617
vn 0.9785 0.2047 -0.0253
vn -0.5271 -0.8348 -0.1588
vn 0.0615 0.9981 0.0067
vn 0.4452 0.8954 0.0095
vn -0.0656 -0.9734 0.2196
vn 0.1153 -0.2899 -0.9501
vn -0.0377 -0.9817 -0.1867
vn -0.6082 0.7937 -0.0120
vn 0.0044 -0.1000 -0.9950
vn -0.4430 -0.8952 -0.0483
vn -0.4476 -0.8911 0.0743
vn -0.6956 0.6425 -0.3214
vt 0.750000 0.500000
vt 0.875000 0.500000
vt 0.875000 0.750000
vt 0.750000 0.750000
vt 0.375000 0.875000
vt 0.625000 0.875000
vt 0.625000 1.000000
vt 0.375000 1.000000
vt 0.375000 0.000000
vt 0.625000 0.000000
vt 0.625000 0.250000
vt 0.375000 0.250000
vt 0.250000 0.500000
vt 0.375000 0.500000
vt 0.375000 0.750000
vt 0.250000 0.750000
vt 0.625000 0.500000
vt 0.625000 0.750000
vt 0.375000 0.375000
vt 0.625000 0.375000
vt 0.125000 0.500000
vt 0.125000 0.750000
s 0
usemtl Material
f 18/1/1 5/2/1 7/3/1 16/4/1
f 17/5/2 16/6/2 7/7/2 8/8/2
f 8/9/3 7/10/3 5/11/3 6/12/3
f 15/13/4 2/14/4 4/15/4 17/16/4
f 1/17/5 3/18/5 23/18/5 21/17/5
f 6/12/3 5/11/3 14/11/3 12/12/3
f 4/15/6 3/18/6 9/18/6 10/15/6
f 19/19/7 20/20/7 39/20/7 40/19/7
f 15/13/8 6/21/8 12/21/8 19/13/8
f 18/1/9 1/17/9 13/17/9 20/1/9
f 1/17/10 2/14/10 11/14/10 13/17/10
f 5/2/11 18/1/11 20/1/11 14/2/11
f 2/14/12 15/13/12 19/13/12 11/14/12
f 12/12/13 14/11/13 20/20/13 19/19/13
f 6/21/14 15/13/14 17/16/14 8/22/14
f 4/15/15 3/18/15 29/18/15 30/15/15
f 1/17/16 18/1/16 16/4/16 3/18/16
f 21/17/17 23/18/17 27/18/17 25/17/17
f 3/18/18 4/15/18 24/15/18 23/18/18
f 2/14/19 1/17/19 21/17/19 22/14/19
f 4/15/20 2/14/20 22/14/20 24/15/20
f 26/14/21 25/17/21 27/18/21 28/15/21
f 22/14/22 21/17/22 25/17/22 26/14/22
f 24/15/23 22/14/23 26/14/23 28/15/23
f 23/18/24 24/15/24 28/15/24 27/18/24
f 29/18/25 32/4/25 36/4/25 33/18/25
f 3/18/26 16/4/26 42/4/26 41/18/26
f 16/6/3 17/5/3 31/5/3 32/6/3
f 17/16/27 4/15/27 30/15/27 31/16/27
f 34/15/2 33/18/2 36/6/2 35/5/2
f 30/15/15 29/18/15 33/18/15 34/15/15
f 32/6/3 31/5/3 35/5/3 36/6/3
f 31/16/28 30/15/28 34/15/28 35/16/28
f 40/19/29 39/20/29 37/17/29 38/14/29
f 20/1/30 13/17/30 37/17/30 39/1/30
f 13/17/31 11/14/31 38/14/31 37/17/31
f 11/14/32 19/13/32 40/13/32 38/14/32
f 41/18/33 42/4/33 44/4/33 43/18/33
f 16/6/3 32/6/3 44/6/3 42/6/3
f 29/18/15 3/18/15 41/18/15 43/18/15
f 32/4/34 29/18/34 43/18/34 44/4/34
f 59/1/1 16/4/1 51/3/1 49/2/1
f 17/5/2 52/8/2 51/7/2 16/6/2
f 52/9/15 50/12/15 49/11/15 51/10/15
f 15/13/35 17/16/35 48/15/35 46/14/35
f 45/17/36 62/17/36 64/18/36 47/18/36
f 50/12/15 56/12/15 58/11/15 49/11/15
f 48/15/37 54/15/37 53/18/37 47/18/37
f 60/19/38 77/19/38 76/20/38 61/20/38
f 15/13/39 60/13/39 56/21/39 50/21/39
f 59/1/40 61/1/40 57/17/40 45/17/40
f 45/17/41 57/17/41 55/14/41 46/14/41
f 49/2/42 58/2/42 61/1/42 59/1/42
f 46/14/43 55/14/43 60/13/43 15/13/43
f 56/12/44 60/19/44 61/20/44 58/11/44
f 50/21/45 52/22/45 17/16/45 15/13/45
f 48/15/3 71/15/3 70/18/3 47/18/3
f 45/17/46 47/18/46 16/4/46 59/1/46
f 62/17/47 66/17/47 68/18/47 64/18/47
f 47/18/48 64/18/48 65/15/48 48/15/48
f 46/14/49 63/14/49 62/17/49 45/17/49
f 48/15/50 65/15/50 63/14/50 46/14/50
f 67/14/51 69/15/51 68/18/51 66/17/51
f 63/14/52 67/14/52 66/17/52 62/17/52
f 65/15/53 69/15/53 67/14/53 63/14/53
f 64/18/54 68/18/54 69/15/54 65/15/54
f 70/18/25 72/18/25 36/4/25 32/4/25
f 47/18/26 78/18/26 42/4/26 16/4/26
f 17/16/27 31/16/27 71/15/27 48/15/27
f 73/15/2 35/5/2 36/6/2 72/18/2
f 71/15/3 73/15/3 72/18/3 70/18/3
f 31/16/28 35/16/28 73/15/28 71/15/28
f 77/19/29 75/14/29 74/17/29 76/20/29
f 61/1/30 76/1/30 74/17/30 57/17/30
f 57/17/55 74/17/55 75/14/55 55/14/55
f 55/14/32 75/14/32 77/13/32 60/13/32
f 78/18/33 79/18/33 44/4/33 42/4/33
f 70/18/3 79/18/3 78/18/3 47/18/3
f 32/4/34 44/4/34 79/18/34 70/18/34
