# Blender 4.5.3 LTS
# www.blender.org
mtllib nave.mtl
o Cube
v -1.000000 -0.364167 1.000000
v -1.000000 0.375335 1.000000
v -1.000000 -0.364167 -1.000000
v -1.000000 0.375335 -1.000000
v 1.000000 0.355501 1.000000
v 1.000000 0.375335 1.000000
v 1.000000 -2.084458 -1.000000
v 1.155033 2.052526 -1.155033
v 0.000000 0.316839 -1.000000
v 0.000000 0.375335 -1.000000
v 0.000000 0.355501 1.000000
v 0.000000 0.375335 1.000000
v -1.000000 -0.086757 1.805015
v -1.000000 0.099645 1.805015
v 1.000000 0.099645 1.805015
v 1.000000 -0.086757 1.805015
v 0.000000 -0.086757 1.805015
v 0.000000 0.099645 1.805015
v -1.000000 0.375335 -1.915147
v -1.000000 -0.364167 -1.915147
v 0.000000 -0.402828 -1.915147
v 0.000000 0.375335 -1.915147
v 1.155033 2.052526 -1.760114
v 1.000000 -2.804125 -1.915147
v 2.135725 2.052526 -1.155033
v 2.290758 -2.804125 -1.000000
v 2.135725 2.052526 -1.760114
v 2.290758 -2.804125 -1.915147
v 0.000000 0.375335 -4.128019
v 1.000000 0.375335 -4.128019
v 1.000000 -0.402828 -4.128019
v 0.000000 -0.402828 -4.128019
v 1.000000 0.375335 -1.000000
v 1.000000 0.375335 -1.915147
v 2.290758 0.375335 -1.000000
v 2.290758 0.375335 -1.915147
v 1.000000 0.375335 -1.000000
v 1.000000 0.375335 -1.915147
v 2.290758 0.375335 -1.000000
v 2.290758 0.375335 -1.915147
v 1.000000 -0.364167 1.000000
v 1.000000 0.375335 1.000000
v 1.000000 -0.364167 -1.000000
v 1.000000 0.375335 -1.000000
v -1.000000 0.355501 1.000000
v -1.000000 0.375335 1.000000
v -1.000000 -2.084458 -1.000000
v -1.155033 2.052526 -1.155033
v 0.000000 0.316839 -1.000000
v 0.000000 0.375335 -1.000000
v 0.000000 0.355501 1.000000
v 0.000000 0.375335 1.000000
v 1.000000 -0.086757 1.805015
v 1.000000 0.099645 1.805015
v -1.000000 0.099645 1.805015
v -1.000000 -0.086757 1.805015
v 0.000000 -0.086757 1.805015
v 0.000000 0.099645 1.805015
v 1.000000 0.375335 -1.915147
v 1.000000 -0.364167 -1.915147
v 0.000000 -0.402828 -1.915147
v 0.000000 0.375335 -1.915147
v -1.155033 2.052526 -1.760114
v -1.000000 -2.804125 -1.915147
v -2.135725 2.052526 -1.155033
v -2.290758 -2.804125 -1.000000
v -2.135725 2.052526 -1.760114
v -2.290758 -2.804125 -1.915147
v 0.000000 0.375335 -4.128019
v -1.000000 0.375335 -4.128019
v -1.000000 -0.402828 -4.128019
v 0.000000 -0.402828 -4.128019
v -1.000000 0.375335 -1.000000
v -1.000000 0.375335 -1.915147
v -2.290758 0.375335 -1.000000
v -2.290758 0.375335 -1.915147
v -1.000000 0.375335 -1.000000
v -1.000000 0.375335 -1.915147
v -2.290758 0.375335 -1.000000
v -2.290758 0.375335 -1.915147
vn -1.0000 -0.0000 -0.0000
vn -0.0000 1.0000 -0.0000
vn 1.0000 -0.0000 -0.0000
vn -0.7143 -0.5949 0.3686
vn 0.5736 -0.8191 0.0079
vn -0.0000 0.9461 0.3240
vn 0.2864 -0.8917 0.3506
vn -0.0000 -0.0000 1.0000
vn 0.3370 -0.9366 -0.0959
vn -0.0000 -0.8764 -0.4815
vn -0.0000 -0.0000 -1.0000
vn -0.8837 -0.3680 0.2894
vn -0.2511 -0.9008 0.3542
vn -0.7259 -0.6046 -0.3280
vn -0.9958 0.0920 -0.0000
vn 0.9958 0.0920 -0.0000
vn -0.0000 0.0920 0.9958
vn -0.0000 0.0920 -0.9958
vn 0.7143 -0.5949 0.3686
vn -0.5736 -0.8191 0.0079
vn -0.2864 -0.8917 0.3506
vn -0.3370 -0.9366 -0.0959
vn 0.8837 -0.3680 0.2894
vn 0.2511 -0.9008 0.3542
vn 0.7259 -0.6046 -0.3280
vt 0.375000 0.000000
vt 0.625000 0.000000
vt 0.625000 0.250000
vt 0.375000 0.250000
vt 0.875000 0.500000
vt 0.750000 0.500000
vt 0.375000 0.500000
vt 0.625000 0.500000
vt 0.625000 0.750000
vt 0.375000 0.750000
vt 0.250000 0.500000
vt 0.250000 0.750000
vt 0.875000 0.750000
vt 0.750000 0.750000
vt 0.125000 0.500000
vt 0.125000 0.750000
vt 0.375000 0.875000
vt 0.625000 0.875000
vt 0.625000 1.000000
vt 0.375000 1.000000
vt 0.625000 0.375000
vt 0.375000 0.375000
vt 0.625000 0.500000
vt 0.625000 0.500000
s 0
f 1/1/1 2/2/1 4/3/1 3/4/1
f 4/5/2 10/6/2 22/6/2 19/5/2
f 7/7/3 33/8/3 6/9/3 5/10/3
f 5/10/3 6/9/3 15/9/3 16/10/3
f 9/11/4 7/7/4 5/10/4 11/12/4
f 10/6/2 4/5/2 2/13/2 12/14/2
f 33/8/2 10/6/2 12/14/2 6/9/2
f 3/15/5 9/11/5 11/12/5 1/16/5
f 12/14/6 2/13/6 14/13/6 18/14/6
f 9/11/7 3/15/7 20/15/7 21/11/7
f 17/17/8 18/18/8 14/19/8 13/20/8
f 16/10/8 15/9/8 18/18/8 17/17/8
f 1/16/9 11/12/9 17/12/9 13/16/9
f 2/2/1 1/1/1 13/1/1 14/2/1
f 11/12/10 5/10/10 16/10/10 17/12/10
f 6/9/6 12/14/6 18/14/6 15/9/6
f 34/8/3 24/7/3 31/7/3 30/8/3
f 20/4/11 19/3/11 22/21/11 21/22/11
f 10/6/2 33/8/2 34/8/2 22/6/2
f 3/4/1 4/3/1 19/3/1 20/4/1
f 7/7/12 9/11/12 21/11/12 24/7/12
f 33/8/8 7/7/8 26/7/8 35/8/8
f 35/8/3 26/7/3 28/7/3 36/8/3
f 24/7/11 34/8/11 36/8/11 28/7/11
f 23/23/2 8/8/2 25/24/2 27/8/2
f 7/7/13 24/7/13 28/7/13 26/7/13
f 32/22/11 29/21/11 30/8/11 31/7/11
f 21/22/1 22/21/1 29/21/1 32/22/1
f 24/7/14 21/11/14 32/11/14 31/7/14
f 22/6/2 34/8/2 30/8/2 29/6/2
f 37/8/2 38/8/2 34/8/2 33/8/2
f 40/8/2 39/8/2 35/8/2 36/8/2
f 39/8/2 37/8/2 33/8/2 35/8/2
f 38/8/2 40/8/2 36/8/2 34/8/2
f 8/8/15 23/23/15 38/8/15 37/8/15
f 27/8/16 25/24/16 39/8/16 40/8/16
f 25/24/17 8/8/17 37/8/17 39/8/17
f 23/23/18 27/8/18 40/8/18 38/8/18
f 41/1/3 43/4/3 44/3/3 42/2/3
f 44/5/2 59/5/2 62/6/2 50/6/2
f 47/7/1 45/10/1 46/9/1 73/8/1
f 45/10/1 56/10/1 55/9/1 46/9/1
f 49/11/19 51/12/19 45/10/19 47/7/19
f 50/6/2 52/14/2 42/13/2 44/5/2
f 73/8/2 46/9/2 52/14/2 50/6/2
f 43/15/20 41/16/20 51/12/20 49/11/20
f 52/14/6 58/14/6 54/13/6 42/13/6
f 49/11/21 61/11/21 60/15/21 43/15/21
f 57/17/8 53/20/8 54/19/8 58/18/8
f 56/10/8 57/17/8 58/18/8 55/9/8
f 41/16/22 53/16/22 57/12/22 51/12/22
f 42/2/3 54/2/3 53/1/3 41/1/3
f 51/12/10 57/12/10 56/10/10 45/10/10
f 46/9/6 55/9/6 58/14/6 52/14/6
f 74/8/1 70/8/1 71/7/1 64/7/1
f 60/4/11 61/22/11 62/21/11 59/3/11
f 50/6/2 62/6/2 74/8/2 73/8/2
f 43/4/3 60/4/3 59/3/3 44/3/3
f 47/7/23 64/7/23 61/11/23 49/11/23
f 73/8/8 75/8/8 66/7/8 47/7/8
f 75/8/1 76/8/1 68/7/1 66/7/1
f 64/7/11 68/7/11 76/8/11 74/8/11
f 63/23/2 67/8/2 65/24/2 48/8/2
f 47/7/24 66/7/24 68/7/24 64/7/24
f 72/22/11 71/7/11 70/8/11 69/21/11
f 61/22/3 72/22/3 69/21/3 62/21/3
f 64/7/25 71/7/25 72/11/25 61/11/25
f 62/6/2 69/6/2 70/8/2 74/8/2
f 77/8/2 73/8/2 74/8/2 78/8/2
f 80/8/2 76/8/2 75/8/2 79/8/2
f 79/8/2 75/8/2 73/8/2 77/8/2
f 78/8/2 74/8/2 76/8/2 80/8/2
f 48/8/16 77/8/16 78/8/16 63/23/16
f 67/8/15 80/8/15 79/8/15 65/24/15
f 65/24/17 79/8/17 77/8/17 48/8/17
f 63/23/18 78/8/18 80/8/18 67/8/18
